<svg width="20" height="20" viewBox="0 0 20 20" fill="none" xmlns="http://www.w3.org/2000/svg">
<path fill-rule="evenodd" clip-rule="evenodd" d="M10.0013 2.29169C5.74411 2.29169 2.29297 5.74283 2.29297 10C2.29297 14.2572 5.74411 17.7084 10.0013 17.7084C14.2585 17.7084 17.7096 14.2572 17.7096 10C17.7096 5.74283 14.2585 2.29169 10.0013 2.29169ZM1.04297 10C1.04297 5.05247 5.05375 1.04169 10.0013 1.04169C14.9489 1.04169 18.9596 5.05247 18.9596 10C18.9596 14.9476 14.9489 18.9584 10.0013 18.9584C5.05375 18.9584 1.04297 14.9476 1.04297 10ZM10.0013 6.45835C9.48355 6.45835 9.0638 6.87809 9.0638 7.39585C9.0638 7.74103 8.78397 8.02085 8.4388 8.02085C8.09363 8.02085 7.8138 7.74103 7.8138 7.39585C7.8138 6.18773 8.79322 5.20835 10.0013 5.20835C11.2094 5.20835 12.1888 6.18773 12.1888 7.39585C12.1888 8.19864 11.756 8.89969 11.1141 9.27952C10.9501 9.37652 10.8147 9.48244 10.7266 9.58635C10.6409 9.68719 10.6263 9.75302 10.6263 9.79169V10.8334C10.6263 11.1785 10.3465 11.4584 10.0013 11.4584C9.65613 11.4584 9.3763 11.1785 9.3763 10.8334V9.79169C9.3763 9.3701 9.56088 9.02802 9.77347 8.77752C9.98347 8.53002 10.2454 8.34102 10.4776 8.20368C10.755 8.03951 10.9388 7.73881 10.9388 7.39585C10.9388 6.87809 10.5191 6.45835 10.0013 6.45835ZM10.0013 14.1667C10.4616 14.1667 10.8346 13.7936 10.8346 13.3334C10.8346 12.8731 10.4616 12.5 10.0013 12.5C9.54105 12.5 9.16797 12.8731 9.16797 13.3334C9.16797 13.7936 9.54105 14.1667 10.0013 14.1667Z" fill="#323232"/>
</svg>
