<svg width="20" height="21" viewBox="0 0 20 21" fill="none" xmlns="http://www.w3.org/2000/svg">
<path d="M10.0013 2.16669C5.40964 2.16669 1.66797 5.90835 1.66797 10.5C1.66797 15.0917 5.40964 18.8334 10.0013 18.8334C14.593 18.8334 18.3346 15.0917 18.3346 10.5C18.3346 5.90835 14.593 2.16669 10.0013 2.16669ZM13.9846 8.58335L9.25963 13.3084C9.14297 13.425 8.98464 13.4917 8.81797 13.4917C8.6513 13.4917 8.49297 13.425 8.3763 13.3084L6.01797 10.95C5.7763 10.7084 5.7763 10.3084 6.01797 10.0667C6.25964 9.82502 6.65964 9.82502 6.9013 10.0667L8.81797 11.9834L13.1013 7.70002C13.343 7.45835 13.743 7.45835 13.9846 7.70002C14.2263 7.94169 14.2263 8.33335 13.9846 8.58335Z" fill="#23DA4B"/>
</svg>
