<svg width="25" height="24" viewBox="0 0 25 24" fill="none" xmlns="http://www.w3.org/2000/svg">
<path fill-rule="evenodd" clip-rule="evenodd" d="M5.76172 4.75C5.62365 4.75 5.51172 4.86193 5.51172 5V9C5.51172 9.13807 5.62365 9.25 5.76172 9.25H9.76172C9.89979 9.25 10.0117 9.13807 10.0117 9V5C10.0117 4.86193 9.89979 4.75 9.76172 4.75H5.76172ZM4.01172 5C4.01172 4.0335 4.79522 3.25 5.76172 3.25H9.76172C10.7282 3.25 11.5117 4.0335 11.5117 5V9C11.5117 9.9665 10.7282 10.75 9.76172 10.75H5.76172C4.79522 10.75 4.01172 9.9665 4.01172 9V5ZM15.7617 4.75C15.6236 4.75 15.5117 4.86193 15.5117 5V9C15.5117 9.13807 15.6236 9.25 15.7617 9.25H19.7617C19.8998 9.25 20.0117 9.13807 20.0117 9V5C20.0117 4.86193 19.8998 4.75 19.7617 4.75H15.7617ZM14.0117 5C14.0117 4.0335 14.7952 3.25 15.7617 3.25H19.7617C20.7282 3.25 21.5117 4.0335 21.5117 5V9C21.5117 9.9665 20.7282 10.75 19.7617 10.75H15.7617C14.7952 10.75 14.0117 9.9665 14.0117 9V5ZM5.76172 14.75C5.62365 14.75 5.51172 14.8619 5.51172 15V19C5.51172 19.1381 5.62365 19.25 5.76172 19.25H9.76172C9.89979 19.25 10.0117 19.1381 10.0117 19V15C10.0117 14.8619 9.89979 14.75 9.76172 14.75H5.76172ZM4.01172 15C4.01172 14.0335 4.79522 13.25 5.76172 13.25H9.76172C10.7282 13.25 11.5117 14.0335 11.5117 15V19C11.5117 19.9665 10.7282 20.75 9.76172 20.75H5.76172C4.79522 20.75 4.01172 19.9665 4.01172 19V15ZM15.7617 14.75C15.6236 14.75 15.5117 14.8619 15.5117 15V19C15.5117 19.1381 15.6236 19.25 15.7617 19.25H19.7617C19.8998 19.25 20.0117 19.1381 20.0117 19V15C20.0117 14.8619 19.8998 14.75 19.7617 14.75H15.7617ZM14.0117 15C14.0117 14.0335 14.7952 13.25 15.7617 13.25H19.7617C20.7282 13.25 21.5117 14.0335 21.5117 15V19C21.5117 19.9665 20.7282 20.75 19.7617 20.75H15.7617C14.7952 20.75 14.0117 19.9665 14.0117 19V15Z" fill="black" fill-opacity="0.54"/>
</svg>
