<svg width="21" height="16" viewBox="0 0 21 16" fill="none" xmlns="http://www.w3.org/2000/svg">
<path fill-rule="evenodd" clip-rule="evenodd" d="M2.5 2.31555C1.85496 2.84624 1.42297 3.70735 1.42297 5.05813V10.9419C1.42297 12.2926 1.85496 13.1537 2.5 13.6845C3.15457 14.223 4.1408 14.5141 5.4547 14.5141H14.9411C16.255 14.5141 17.2412 14.223 17.8959 13.6845C18.5409 13.1537 18.9729 12.2926 18.9729 10.9419V5.05813C18.9729 3.70735 18.5409 2.84624 17.8959 2.31555C17.2412 1.77699 16.255 1.48585 14.9411 1.48585H5.4547C4.1408 1.48585 3.15457 1.77699 2.5 2.31555ZM1.53174 1.39163C2.53729 0.564317 3.92267 0.225052 5.4547 0.225052H14.9411C16.4732 0.225052 17.8586 0.564317 18.8641 1.39163C19.8792 2.2268 20.3958 3.46704 20.3958 5.05813V10.9419C20.3958 12.533 19.8792 13.7732 18.8641 14.6084C17.8586 15.4357 16.4732 15.775 14.9411 15.775H5.4547C3.92267 15.775 2.53729 15.4357 1.53174 14.6084C0.51665 13.7732 0 12.533 0 10.9419V5.05813C0 3.46704 0.51665 2.2268 1.53174 1.39163Z" fill="white"/>
<path fill-rule="evenodd" clip-rule="evenodd" d="M17.1854 4.05812C17.4257 4.33361 17.3684 4.72952 17.0575 4.94239L11.7953 8.54518C10.8557 9.18835 9.54462 9.18835 8.60508 8.54518L3.3429 4.94239C3.03196 4.72952 2.97467 4.33361 3.21494 4.05812C3.4552 3.78261 3.90202 3.73185 4.21296 3.94474L9.47508 7.54746C9.90216 7.83989 10.4982 7.83989 10.9252 7.54746L16.1874 3.94474C16.4984 3.73185 16.9452 3.78261 17.1854 4.05812Z" fill="white"/>
</svg>
