<svg width="41" height="42" viewBox="0 0 41 42" fill="none" xmlns="http://www.w3.org/2000/svg">
<path d="M39.8002 20.7924C39.8002 31.7415 31.0966 40.5848 20.4001 40.5848C9.7036 40.5848 1 31.7415 1 20.7924C1 9.84332 9.7036 1 20.4001 1C31.0966 1 39.8002 9.84332 39.8002 20.7924Z" stroke="white" stroke-width="2"/>
<path d="M34.7796 28.6176L17.0974 36.9737C16.7133 37.171 16.2924 37.2864 15.8614 37.3128C15.4304 37.3391 14.9986 37.2756 14.5933 37.1265C14.1886 36.9854 13.8172 36.7624 13.5024 36.4714C13.1876 36.1805 12.9362 35.8278 12.7636 35.4354L4.39561 17.728C4.1983 17.3439 4.08284 16.923 4.05654 16.492C4.03023 16.061 4.09365 15.6292 4.24278 15.2239C4.38485 14.8161 4.61 14.4423 4.90398 14.126C5.19796 13.8096 5.55438 13.5578 5.9507 13.3863L23.6412 5.02621C24.0254 4.8289 24.4462 4.71344 24.8773 4.68714C25.3083 4.66083 25.7401 4.72425 26.1454 4.87338C26.5531 5.01545 26.927 5.2406 27.2433 5.53458C27.5596 5.82856 27.8115 6.18498 27.983 6.58129L36.3431 24.2718C36.7082 25.056 36.7488 25.9527 36.4559 26.7666C36.1631 27.5805 35.5606 28.2458 34.7796 28.6176ZM27.6843 16.8526C26.7037 15.0553 25.0994 13.6789 23.174 12.9828C21.2485 12.2867 19.1349 12.3191 17.2317 13.0739L16.2545 13.5357C14.467 14.5332 13.1028 16.1464 12.416 18.0748C11.7291 20.0032 11.7665 22.1155 12.521 24.0184L12.9469 24.9198C13.939 26.7121 15.5528 28.0792 17.4838 28.7632C19.4025 29.4723 21.5156 29.4465 23.4163 28.6906L24.3682 28.2407C26.1539 27.2401 27.5167 25.6266 28.2047 23.6987C28.8926 21.7708 28.859 19.6591 28.1102 17.754L27.6843 16.8526ZM14.0395 24.3314C13.9678 24.1797 13.8922 24.0197 13.8165 23.8596C13.3882 22.9935 13.1669 22.0398 13.1698 21.0736C15.5751 23.3721 17.8885 25.6143 20.1101 27.8003C18.8752 27.872 17.6457 27.5875 16.5679 26.9806C15.49 26.3738 14.6092 25.47 14.0301 24.377L14.0395 24.3314ZM24.3399 18.4331C24.5148 19.1727 24.6484 19.9215 24.7403 20.676C24.8689 21.5152 24.9733 22.2594 25.0534 22.9086C25.0295 22.858 24.5313 22.3927 23.6675 21.5024C21.1756 18.977 19.7981 17.5668 19.5351 17.272C20.1346 16.9269 20.3906 16.6617 20.307 16.4848C20.2512 16.3668 19.9999 16.4238 19.6377 16.5949C19.5008 16.6464 19.3684 16.709 19.2417 16.782L17.0936 17.7972C16.9762 17.8389 16.8633 17.8922 16.7566 17.9564C16.4112 18.1197 16.2702 18.2791 16.3418 18.4307C16.3976 18.5486 16.7486 18.5064 17.4073 18.3085L17.3675 18.2242L19.7338 20.5274C20.1158 23.8507 20.3028 25.5039 20.2948 25.4871L20.2692 25.324C19.0011 24.058 17.1304 22.1493 14.6779 19.5983C15.2757 19.2059 15.556 18.9704 15.5189 18.8918C15.4472 18.7401 15.1715 18.7673 14.6998 18.9903L14.346 19.1575L13.0065 19.7905C13.1314 18.7033 13.5156 17.6622 14.1269 16.7545C14.7382 15.8469 15.5586 15.0995 16.5191 14.5752L17.075 14.3124C18.6558 13.5548 20.4681 13.4367 22.1338 13.9829L22.0833 14.0068C21.9106 14.0891 21.7635 14.2165 21.6572 14.3755C21.551 14.5346 21.4897 14.7193 21.4797 14.9103C21.4536 15.1621 21.4954 15.4164 21.6009 15.6465C21.6944 15.8246 21.8161 15.9863 21.9612 16.1255C23.5229 17.6856 24.3306 18.4787 24.3425 18.504L24.3399 18.4331ZM25.2569 25.7597C24.7442 26.3612 24.1098 26.8472 23.3955 27.1855C22.75 27.4833 22.0602 27.6735 21.3533 27.7487C21.2543 26.9505 21.1445 25.8894 20.9906 24.5606C20.8497 23.0195 20.778 21.9301 20.666 21.3441C21.2173 21.8565 21.9886 22.5947 22.976 23.5502C23.9635 24.5057 24.7817 25.3866 25.2595 25.8306L25.2569 25.7597ZM26.3012 24.5242C26.1921 23.6173 26.0678 22.4601 25.941 21.036C25.7729 19.2193 25.6818 18.0669 25.6229 17.528C25.5257 16.8499 25.3223 16.1913 25.0201 15.5765C24.9405 15.408 24.8569 15.2311 24.7693 15.0458C25.7077 15.6956 26.4574 16.5822 26.9421 17.6156C27.0212 17.7496 27.0878 17.8906 27.1412 18.0368C27.5939 19.1064 27.7549 20.2769 27.6078 21.429C27.4607 22.5811 27.0107 23.6736 26.3038 24.5951L26.3012 24.5242Z" fill="white"/>
</svg>
