<svg width="20" height="20" viewBox="0 0 20 20" fill="none" xmlns="http://www.w3.org/2000/svg">
<path d="M13.9212 15.5892C13.764 15.741 13.5535 15.825 13.335 15.8231C13.1165 15.8212 12.9075 15.7335 12.753 15.579C12.5985 15.4245 12.5109 15.2155 12.509 14.997C12.5071 14.7785 12.5911 14.568 12.7429 14.4109L16.3204 10.8334L1.66536 10.8334C1.44435 10.8334 1.23239 10.7456 1.07611 10.5893C0.919828 10.433 0.832031 10.221 0.832031 10C0.832031 9.77901 0.919828 9.56705 1.07611 9.41077C1.23239 9.25449 1.44435 9.16669 1.66536 9.16669L16.3204 9.16669L12.7429 5.58919C12.5911 5.43203 12.5071 5.22152 12.509 5.00303C12.5109 4.78453 12.5985 4.57552 12.753 4.42101C12.9075 4.2665 13.1165 4.17886 13.335 4.17696C13.5535 4.17507 13.764 4.25906 13.9212 4.41086L18.9212 9.41086C19.0774 9.56713 19.1652 9.77906 19.1652 10C19.1652 10.221 19.0774 10.4329 18.9212 10.5892L13.9212 15.5892Z" fill="white"/>
</svg>
