<svg width="20" height="20" viewBox="0 0 20 20" fill="none" xmlns="http://www.w3.org/2000/svg">
<path d="M4.54874 7.07483C5.41932 7.08214 6.05016 7.33314 6.44129 7.82742C6.83241 8.3217 6.96146 8.99682 6.82865 9.85277C6.77707 10.2439 6.66264 10.6275 6.48556 11.0038C6.31578 11.3801 6.07982 11.7194 5.77724 12.022C5.40825 12.4056 5.01358 12.6491 4.59301 12.7525C4.17245 12.8558 3.73706 12.9074 3.28705 12.9074H1.95895L1.53838 15.0102H0L1.58265 7.07483H4.54874ZM17.6696 7.07483C18.5402 7.08214 19.171 7.33314 19.5621 7.82742C19.9532 8.3217 20.0823 8.99682 19.9495 9.85277C19.8979 10.2439 19.7835 10.6275 19.6064 11.0038C19.4366 11.3801 19.2007 11.7194 18.8981 12.022C18.5291 12.4056 18.1344 12.6491 17.7139 12.7525C17.2933 12.8558 16.8579 12.9074 16.4079 12.9074H15.0798L14.6592 15.0102H13.1208L14.7035 7.07483H17.6696ZM10.1084 4.96094L9.67675 7.07483H11.0491C11.8017 7.08966 12.3624 7.2446 12.7314 7.53967C13.1077 7.83473 13.2184 8.39562 13.0634 9.22193L12.3219 12.9074H10.7724L11.4808 9.38794C11.5545 9.01895 11.5323 8.75709 11.4144 8.60215C11.2964 8.4472 11.0418 8.36973 10.6507 8.36973L9.4222 8.35866L8.51467 12.9074H6.98735L8.58107 4.96094H10.1084ZM3.35345 8.33653C3.26491 8.34383 3.18013 8.34759 3.0989 8.34759L2.87531 8.34758L2.2135 11.6568C2.25777 11.6641 2.30204 11.6678 2.34631 11.6678H2.50126C3.20958 11.6752 3.79991 11.6052 4.27206 11.4576C4.7442 11.3026 5.06161 10.7641 5.22386 9.84171C5.35667 9.06698 5.22386 8.62052 4.82543 8.50254C4.43431 8.38455 3.94379 8.32922 3.35345 8.33653ZM16.4743 8.33653C16.3857 8.34383 16.301 8.34759 16.2197 8.34759L15.9961 8.34758L15.3343 11.6568C15.3786 11.6641 15.4229 11.6678 15.4671 11.6678H15.6221C16.3304 11.6752 16.9207 11.6052 17.3929 11.4576C17.865 11.3026 18.1824 10.7641 18.3447 9.84171C18.4775 9.06698 18.3447 8.62052 17.9463 8.50254C17.5551 8.38455 17.0646 8.32922 16.4743 8.33653Z" fill="black"/>
</svg>
