<svg width="30" height="30" viewBox="0 0 30 30" fill="none" xmlns="http://www.w3.org/2000/svg">
<rect width="30" height="30" rx="15" fill="#CEFFD9"/>
<path d="M4.99609 15.88V14.12C4.99609 13.08 5.84609 12.2201 6.89609 12.2201C8.70609 12.2201 9.44609 10.9401 8.53609 9.37006C8.01609 8.47006 8.32609 7.30006 9.23609 6.78006L10.9661 5.79006C11.7561 5.32006 12.7761 5.60006 13.2461 6.39006L13.3561 6.58006C14.2561 8.15006 15.7361 8.15006 16.6461 6.58006L16.7561 6.39006C17.2261 5.60006 18.2461 5.32006 19.0361 5.79006L20.7661 6.78006C21.6761 7.30006 21.9861 8.47006 21.4661 9.37006C20.5561 10.9401 21.2961 12.2201 23.1061 12.2201C24.1461 12.2201 25.0061 13.07 25.0061 14.12V15.88C25.0061 16.92 24.1561 17.78 23.1061 17.78C21.2961 17.78 20.5561 19.06 21.4661 20.63C21.9861 21.54 21.6761 22.7 20.7661 23.22L19.0361 24.21C18.2461 24.68 17.2261 24.4 16.7561 23.61L16.6461 23.42C15.7461 21.85 14.2661 21.85 13.3561 23.42L13.2461 23.61C12.7761 24.4 11.7561 24.68 10.9661 24.21L9.23609 23.22C8.32609 22.7 8.01609 21.53 8.53609 20.63C9.44609 19.06 8.70609 17.78 6.89609 17.78C5.84609 17.78 4.99609 16.92 4.99609 15.88Z" stroke="#23DA4B" stroke-width="2" stroke-miterlimit="10" stroke-linecap="round" stroke-linejoin="round"/>
<path d="M15 18.75C17.0711 18.75 18.75 17.0711 18.75 15C18.75 12.9289 17.0711 11.25 15 11.25C12.9289 11.25 11.25 12.9289 11.25 15C11.25 17.0711 12.9289 18.75 15 18.75Z" stroke="#23DA4B" stroke-width="2" stroke-miterlimit="10" stroke-linecap="round" stroke-linejoin="round"/>
</svg>
