<svg width="16" height="16" viewBox="0 0 16 16" fill="none" xmlns="http://www.w3.org/2000/svg">
<g clip-path="url(#clip0_320_608)">
<path d="M6.0587 6.00001C6.21543 5.55446 6.5248 5.17875 6.932 4.93943C7.3392 4.70012 7.81796 4.61264 8.28348 4.69248C8.749 4.77233 9.17124 5.01436 9.47542 5.3757C9.77959 5.73703 9.94607 6.19436 9.94536 6.66668C9.94536 8.00001 7.94536 8.66668 7.94536 8.66668M7.9987 11.3333H8.00536M14.6654 8.00001C14.6654 11.6819 11.6806 14.6667 7.9987 14.6667C4.3168 14.6667 1.33203 11.6819 1.33203 8.00001C1.33203 4.31811 4.3168 1.33334 7.9987 1.33334C11.6806 1.33334 14.6654 4.31811 14.6654 8.00001Z" stroke="#344054" stroke-width="1.5" stroke-linecap="round" stroke-linejoin="round"/>
</g>
<defs>
<clipPath id="clip0_320_608">
<rect width="16" height="16" fill="white"/>
</clipPath>
</defs>
</svg>
