<svg width="24" height="24" viewBox="0 0 24 24" fill="none" xmlns="http://www.w3.org/2000/svg">
<path fill-rule="evenodd" clip-rule="evenodd" d="M15.3849 13.2518C18.4915 13.2518 21.0099 10.7334 21.0099 7.62683C21.0099 4.52023 18.4915 2.00183 15.3849 2.00183C12.2784 2.00183 9.75996 4.52023 9.75996 7.62683C9.75996 8.72751 10.0761 9.75434 10.6225 10.6215L2.99219 18.2518L6.73857 21.9982L8.50634 20.2305L6.52772 18.2518L8.50996 16.2696L10.4886 18.2482L12.2563 16.4805L10.2777 14.5018L12.3903 12.3893C13.2574 12.9357 14.2843 13.2518 15.3849 13.2518ZM15.3849 10.7518C17.1108 10.7518 18.5099 9.35272 18.5099 7.62683C18.5099 5.90094 17.1108 4.50183 15.3849 4.50183C13.6591 4.50183 12.26 5.90094 12.26 7.62683C12.26 9.35272 13.6591 10.7518 15.3849 10.7518Z" fill="black"/>
</svg>
