<svg width="31" height="35" viewBox="0 0 31 35" fill="none" xmlns="http://www.w3.org/2000/svg">
<rect x="0.75" y="1.25" width="29.5" height="29.5" rx="14.75" stroke="#FFF" stroke-width="1.5"/>
<rect x="0.199219" y="25" width="10" height="10" rx="5" fill="#FFF"/>
<path d="M12.9444 8.24988C12.5302 8.24988 12.1944 8.58567 12.1944 8.99988C12.1944 9.41409 12.5302 9.74988 12.9444 9.74988V8.24988ZM16.2809 9.74988C16.6951 9.74988 17.0309 9.41409 17.0309 8.99988C17.0309 8.58567 16.6951 8.24988 16.2809 8.24988V9.74988ZM12.6626 21.3359C13.0768 21.3359 13.4126 21.0001 13.4126 20.5859C13.4126 20.1717 13.0768 19.8359 12.6626 19.8359V21.3359ZM10.66 20.5859L10.6518 21.3359H10.66V20.5859ZM9.47536 19.8859L10.1244 19.5099L10.1181 19.4994L9.47536 19.8859ZM9.60601 15.7459L8.85601 15.7401V15.7459H9.60601ZM14.6126 10.6869L14.6073 11.4369L14.618 11.4369L14.6126 10.6869ZM19.6193 15.7469H20.3693V15.7412L19.6193 15.7469ZM19.7499 19.8849L19.1078 19.4972L19.1009 19.509L19.7499 19.8849ZM18.5653 20.5849V21.335L18.5735 21.3349L18.5653 20.5849ZM16.5627 19.8349C16.1484 19.8349 15.8127 20.1707 15.8127 20.5849C15.8127 20.9991 16.1484 21.3349 16.5627 21.3349V19.8349ZM13.4127 20.5849C13.4127 20.1706 13.0769 19.8349 12.6627 19.8349C12.2484 19.8349 11.9127 20.1706 11.9127 20.5849H13.4127ZM12.6627 21.0679H11.9125L11.9128 21.0808L12.6627 21.0679ZM14.6127 22.9999L14.6257 22.25C14.617 22.2498 14.6083 22.2498 14.5996 22.25L14.6127 22.9999ZM16.5627 21.0689L17.3127 21.0821V21.0689H16.5627ZM17.3127 20.5859C17.3127 20.1716 16.9769 19.8359 16.5627 19.8359C16.1485 19.8359 15.8127 20.1716 15.8127 20.5859H17.3127ZM12.6626 19.8359C12.2484 19.8359 11.9127 20.1717 11.9127 20.586C11.9127 21.0002 12.2484 21.3359 12.6626 21.3359V19.8359ZM16.5627 21.336C16.9769 21.336 17.3127 21.0001 17.3127 20.5859C17.3127 20.1716 16.9769 19.8359 16.5627 19.8359V21.336ZM12.9444 9.74988H16.2809V8.24988H12.9444V9.74988ZM12.6626 19.8359H10.66V21.3359H12.6626V19.8359ZM10.6682 19.836C10.452 19.8336 10.2436 19.7156 10.1244 19.5099L8.82639 20.2618C9.20465 20.9148 9.89411 21.3276 10.6518 21.3359L10.6682 19.836ZM10.1181 19.4994C9.98251 19.2739 9.96349 18.9685 10.0629 18.4283C10.1177 18.131 10.1708 17.9295 10.2404 17.5804C10.3005 17.2785 10.356 16.9366 10.356 16.5859H8.85601C8.85601 16.7882 8.82337 17.0159 8.76931 17.2873C8.72465 17.5114 8.63744 17.8867 8.58773 18.1568C8.47829 18.7513 8.39394 19.5429 8.83262 20.2724L10.1181 19.4994ZM10.356 16.5859V15.7459H8.85601V16.5859H10.356ZM10.356 15.7518C10.3749 13.3334 12.2951 11.4206 14.6073 11.4369L14.618 9.93691C11.4422 9.91445 8.8811 12.5297 8.85601 15.7401L10.356 15.7518ZM14.618 11.4369C16.9305 11.4205 18.8509 13.3339 18.8693 15.7526L20.3693 15.7412C20.3448 12.5304 17.7835 9.91446 14.6073 9.93691L14.618 11.4369ZM18.8693 15.7469V16.5849H20.3693V15.7469H18.8693ZM18.8693 16.5849C18.8693 16.9364 18.9247 17.2789 18.9849 17.5814C19.0546 17.932 19.1074 18.132 19.1623 18.4303C19.2619 18.9712 19.2423 19.2744 19.1078 19.4972L20.3919 20.2726C20.8317 19.5444 20.7469 18.7526 20.6376 18.1588C20.588 17.8897 20.5005 17.5124 20.456 17.2888C20.402 17.017 20.3693 16.7884 20.3693 16.5849H18.8693ZM19.1009 19.509C18.9818 19.7147 18.7733 19.8326 18.5571 19.835L18.5735 21.3349C19.3312 21.3266 20.0206 20.9138 20.3989 20.2608L19.1009 19.509ZM18.5653 19.8349H16.5627V21.3349L18.5653 21.335V19.8349ZM11.9127 20.5849L11.9125 21.0679H13.4127V20.5849H11.9127ZM11.9128 21.0808C11.9383 22.5626 13.1352 23.7756 14.6257 23.7497L14.5996 22.25C13.9731 22.2609 13.4244 21.7444 13.4126 21.055L11.9128 21.0808ZM14.5996 23.7497C16.0896 23.7756 17.2865 22.5634 17.3127 21.0821L15.8128 21.0556C15.8006 21.7448 15.252 22.2609 14.6257 22.25L14.5996 23.7497ZM17.3127 21.0689V20.5859H15.8127V21.0689H17.3127ZM12.6626 21.3359L16.5627 21.336V19.8359H12.6626V21.3359Z" fill="white"/>
</svg>
