<svg width="25" height="26" viewBox="0 0 25 26" fill="none" xmlns="http://www.w3.org/2000/svg">
<rect y="0.5" width="25" height="25" rx="12.5" fill="#FFF9E5"/>
<g clip-path="url(#clip0_562_138)">
<path d="M9.43902 15.4688C9.48698 15.3924 9.51786 15.3066 9.52955 15.2173C9.54124 15.1279 9.53346 15.0371 9.50674 14.951C9.48003 14.8649 9.43501 14.7856 9.37477 14.7185C9.31454 14.6515 9.24051 14.5983 9.15777 14.5625C8.4206 14.2562 7.80274 13.7189 7.39701 13.0315C6.99128 12.344 6.8196 11.5434 6.90777 10.75C6.99089 9.88305 7.37317 9.07207 7.989 8.45623C8.60484 7.8404 9.41582 7.45812 10.2828 7.375C10.9703 7.31974 11.6598 7.45358 12.2767 7.76204C12.8937 8.0705 13.4145 8.54183 13.7828 9.125C13.8634 9.23538 13.9739 9.32047 14.1012 9.37029C14.2285 9.4201 14.3674 9.43258 14.5015 9.40625C14.5942 9.37819 14.6791 9.32899 14.7495 9.26252C14.8199 9.19605 14.8739 9.11413 14.9072 9.02323C14.9405 8.93232 14.9523 8.83492 14.9415 8.7387C14.9308 8.64247 14.8978 8.55006 14.8453 8.46875C14.3586 7.68329 13.6613 7.05016 12.8326 6.64136C12.004 6.23255 11.0772 6.06448 10.1578 6.15625C9.05567 6.26493 8.02084 6.73642 7.21564 7.49675C6.41045 8.25708 5.88047 9.26321 5.70885 10.3573C5.53723 11.4513 5.73369 12.5714 6.2674 13.5418C6.80112 14.5121 7.64188 15.2778 8.65777 15.7188C8.79625 15.7783 8.95158 15.7858 9.09515 15.7398C9.23871 15.6939 9.36084 15.5976 9.43902 15.4688Z" fill="#E3AD00"/>
<path d="M10.1562 9.09375V10.6562H8.59375C8.42799 10.6562 8.26902 10.7221 8.15181 10.8393C8.0346 10.9565 7.96875 11.1155 7.96875 11.2812C7.96875 11.447 8.0346 11.606 8.15181 11.7232C8.26902 11.8404 8.42799 11.9062 8.59375 11.9062H11.4062V9.09375C11.4062 8.92799 11.3404 8.76902 11.2232 8.65181C11.106 8.5346 10.947 8.46875 10.7812 8.46875C10.6155 8.46875 10.4565 8.5346 10.3393 8.65181C10.2221 8.76902 10.1562 8.92799 10.1562 9.09375Z" fill="#E3AD00"/>
<path d="M19.283 18.9375L14.5955 10.8125C14.5394 10.722 14.4612 10.6474 14.3683 10.5956C14.2753 10.5439 14.1707 10.5167 14.0642 10.5167C13.9578 10.5167 13.8532 10.5439 13.7602 10.5956C13.6673 10.6474 13.5891 10.722 13.533 10.8125L8.8455 18.9375C8.79105 19.0318 8.76217 19.1386 8.76172 19.2475C8.76128 19.3564 8.78928 19.4635 8.84295 19.5582C8.89663 19.6529 8.97412 19.732 9.06775 19.7875C9.16137 19.8431 9.26789 19.8732 9.37675 19.875H18.7517C18.8606 19.8732 18.9671 19.8431 19.0608 19.7875C19.1544 19.732 19.2319 19.6529 19.2855 19.5582C19.3392 19.4635 19.3672 19.3564 19.3668 19.2475C19.3663 19.1386 19.3374 19.0318 19.283 18.9375ZM14.0642 18.625C13.9406 18.625 13.8198 18.5883 13.717 18.5197C13.6142 18.451 13.5341 18.3534 13.4868 18.2392C13.4395 18.125 13.4271 17.9993 13.4513 17.8781C13.4754 17.7568 13.5349 17.6454 13.6223 17.558C13.7097 17.4706 13.8211 17.4111 13.9423 17.387C14.0636 17.3629 14.1892 17.3753 14.3034 17.4226C14.4176 17.4699 14.5152 17.55 14.5839 17.6528C14.6526 17.7555 14.6892 17.8764 14.6892 18C14.6892 18.1657 14.6234 18.3247 14.5062 18.4419C14.389 18.5591 14.23 18.625 14.0642 18.625ZM14.6892 16.125C14.6892 16.2907 14.6234 16.4497 14.5062 16.5669C14.389 16.6841 14.23 16.75 14.0642 16.75C13.8985 16.75 13.7395 16.6841 13.6223 16.5669C13.5051 16.4497 13.4392 16.2907 13.4392 16.125V13.625C13.4392 13.4592 13.5051 13.3003 13.6223 13.183C13.7395 13.0658 13.8985 13 14.0642 13C14.23 13 14.389 13.0658 14.5062 13.183C14.6234 13.3003 14.6892 13.4592 14.6892 13.625V16.125Z" fill="#E3AD00"/>
</g>
<defs>
<clipPath id="clip0_562_138">
<rect width="15" height="15" fill="white" transform="translate(5 5.5)"/>
</clipPath>
</defs>
</svg>
