<svg width="15" height="15" viewBox="0 0 15 15" fill="none" xmlns="http://www.w3.org/2000/svg">
<path d="M2.84129 2.4425C2.63129 2.4425 2.47379 2.635 2.50879 2.8275L3.92512 11.4993C3.96012 11.7268 4.15262 11.8838 4.38012 11.8838H11.2337C11.3912 11.8838 11.5306 11.7613 11.5656 11.6038L12.9995 2.845C13.0081 2.79704 13.0059 2.74776 12.993 2.70075C12.9801 2.65375 12.9569 2.61023 12.925 2.57337C12.8932 2.53651 12.8534 2.50725 12.8088 2.48774C12.7641 2.46822 12.7157 2.45895 12.667 2.46059L2.84129 2.4425ZM8.85546 8.70167H6.67029L6.09279 5.60709H9.39737L8.85546 8.70167Z" fill="#1C1819"/>
<path d="M12.5284 5.60706H9.38131L8.8569 8.70164H6.67173L4.10156 11.7612C4.10156 11.7612 4.22406 11.8662 4.39906 11.8662H11.2521C11.4096 11.8662 11.5496 11.7437 11.5846 11.5862L12.5284 5.60706Z" fill="#1C1819"/>
</svg>
