<svg width="15" height="15" viewBox="0 0 15 15" fill="none" xmlns="http://www.w3.org/2000/svg">
<path d="M7.23437 1.13C3.85221 1.13 1.10938 3.94342 1.10938 7.41075C1.10938 10.1863 2.86521 12.5383 5.29829 13.3689C5.3325 13.3757 5.36725 13.3794 5.40212 13.38C5.62962 13.38 5.71712 13.2132 5.71712 13.0685C5.71712 12.918 5.71129 12.5243 5.70837 11.9993C5.50583 12.0466 5.29863 12.0713 5.09062 12.0728C3.91229 12.0728 3.64396 11.1569 3.64396 11.1569C3.36512 10.4324 2.96321 10.2382 2.96321 10.2382C2.43004 9.86367 2.96029 9.85317 3.00171 9.85317H3.00404C3.61946 9.90742 3.94204 10.5036 3.94204 10.5036C4.24829 11.0397 4.65838 11.1896 5.02529 11.1896C5.26752 11.185 5.50606 11.1294 5.72529 11.0263C5.77954 10.6208 5.93821 10.3449 6.11321 10.1863C4.75404 10.0276 3.32429 9.48917 3.32429 7.08292C3.32429 6.39634 3.56229 5.83575 3.95312 5.39825C3.89012 5.23959 3.67954 4.59967 4.01321 3.73575C4.05812 3.72528 4.10421 3.72077 4.15029 3.72234C4.37196 3.72234 4.87187 3.80692 5.69787 4.3815C6.7012 4.10082 7.7623 4.10082 8.76562 4.3815C9.59162 3.80692 10.0915 3.72234 10.3132 3.72234C10.3593 3.72077 10.4054 3.72528 10.4503 3.73575C10.7834 4.59967 10.5728 5.23959 10.5104 5.39825C10.9012 5.83867 11.1392 6.39925 11.1392 7.08292C11.1392 9.49442 9.70654 10.0247 8.34154 10.1804C8.56029 10.3747 8.75746 10.7579 8.75746 11.343C8.75746 12.1824 8.74929 12.8603 8.74929 13.0656C8.74929 13.2132 8.83387 13.38 9.06079 13.38C9.09761 13.3798 9.13433 13.3761 9.17046 13.3689C11.6065 12.5377 13.3594 10.1839 13.3594 7.41075C13.3594 3.94342 10.6165 1.13 7.23437 1.13Z" fill="#1C1819"/>
</svg>
