<svg width="14" height="15" viewBox="0 0 14 15" fill="none" xmlns="http://www.w3.org/2000/svg">
<path d="M12.0745 6.16183L12.06 6.12216L10.6308 2.24883C10.6037 2.17331 10.553 2.10858 10.4861 2.0643C10.4192 2.02002 10.3398 1.99858 10.2597 2.00317C10.1796 2.00777 10.1032 2.03816 10.0418 2.08979C9.98039 2.14143 9.93736 2.21155 9.91912 2.28966L8.95429 5.35508H5.04654L4.08229 2.28966C4.06781 2.23219 4.0399 2.17897 4.00085 2.13438C3.9618 2.08979 3.91272 2.05511 3.85766 2.03318C3.80259 2.01126 3.7431 2.00272 3.68409 2.00826C3.62508 2.01381 3.56823 2.03328 3.51821 2.06508C3.45123 2.10949 3.39983 2.17374 3.37121 2.24883L1.93912 6.12041L1.92512 6.1595C1.7196 6.7193 1.69431 7.32936 1.85279 7.90425C2.00804 8.47388 2.34193 8.9787 2.80537 9.3445L2.81004 9.348L2.82287 9.35791L5.00046 11.0507L6.07729 11.8972L6.73354 12.4117C6.80962 12.4715 6.90361 12.504 7.00041 12.504C7.09721 12.504 7.19121 12.4715 7.26729 12.4117L7.92296 11.8972L9.00037 11.0513L11.1908 9.348L11.196 9.34333C11.6585 8.97773 11.9917 8.4736 12.1469 7.90483C12.3052 7.33055 12.2795 6.72116 12.0745 6.16183Z" fill="#1C1819"/>
</svg>
